<svg version="1.2" xmlns="http://www.w3.org/2000/svg" viewBox="0 0 1500 391" width="1500" height="391">
	<title>PinCellFullLogo</title>
	<style>
		.s0 { fill: #000000 } 
	</style>
	<path id="PIN-CELL Vectorizado" fill-rule="evenodd" class="s0" d="m84 179q0 32 0 64-25.5 0-51 0 0-101.5 0-203 35.5 0 71 0c2.9 0.1 28.9-1.7 48.3 6.3 22.3 9 43.1 32.2 42.8 63.3-0.2 24.6-13.8 44.6-27.9 55.2-17.9 13.6-37.2 14.2-37.2 14.2 0 0-24.6 0.1-46 0zm143-139q25.5 0 51 0 0 101.5 0 203-25.5 0-51 0 0-101.5 0-203zm155 82q0 60.5 0 121-25.5 0-51 0 0-101.5 0-203 25.5 0 51 0c0.7 1.3 93.7 124 94 124q0-8 0-16c0-2.5 0-81.5 0-108 17 0 33 0 50 0q0 101.5 0 203-25.5 0-51 0c-1-1.7-92.7-121-93-121zm402 120.9c-4.5 0-42.5-0.4-70.3-28.2-32.2-32.2-31.7-66.3-31.7-73.7 0-3.1-1.5-40.1 28.5-70.1 33.6-33.7 70.3-30.9 73.6-30.9 3.8 0 22.3-0.4 42.4 9.6 22 10.9 36.1 27.1 36.9 30-5 3.8-33.4 25.7-40 31 0-0.4-9.1-10-16.4-14-7.9-4.4-17.7-6-22.9-6-4 0-21.5 0.6-36.3 15.4-16 16-14.7 32.6-14.7 34.8 0 3.2-0.6 20.7 14.3 35.6 16.3 16.3 35 15.5 36.4 15.5 2 0 11-0.6 20.4-4.8 9.7-4.5 17.4-12.7 18.8-15.1 6.7 5.1 32.7 25.2 40.8 31.7-2 1.8-12.6 15.8-35.7 28-19.5 10.2-41.6 11.1-44.1 11.2zm108-202.9q79 0 158 0c1.5 4.1 1 11.4 1 17q0 17 0 34-54 0-108 0 0 12.5 0 25 42 0 84 0 0 25.5 0 51-42 0-84 0 0 12.5 0 25 53.5 0 107 0c1.5 4.1 1 11.4 1 17q0 17 0 34-79.5 0-159 0 0-101.5 0-203zm207 0q25.5 0 51 0 0 76 0 152 42.5 0 85 0 0 25.5 0 51-68 0-136 0 0-101.5 0-203zm-1015 51q0 18.5 0 37c3.6 0 23.8 0.1 39.9 0.1 12 0 20.1-10 20.1-18.1 0-5.4-4.7-19-20.1-19-13.8 0-37.1 0-39.9 0zm464 58q64.5 0 129 0 0 24.5 0 49-64.5 0-129 0 0-24.5 0-49zm842.6 55.5c5.3 4 12.9 8.8 12.9 8.8 0 0-1.4 6.3-2.3 11-0.2 1.1-1.8 8.3-1.7 10.3 0.2 2 0.9 3.8 2 5.4 1.3 1.9 2.9 3 2.8 3-45.3 0-92 0-137.3 0q0-101.5 0-203 25.5 0 51 0 0 76 0 152c22.3 0 45 0 67.3 0 0 0-0.3 1.4-0.5 2.9-0.1 0.7-0.2 1.5-0.2 2.4 0 0.8 0.2 1.5 0.6 2.1 0.7 1.2 2.5 2.8 5.4 5.1z"/>
	<path id="Relleno de color 2" class="s0" d="m83.9 241c0 0-0.1 16 18 16 18.3 0 1274.3 0 1291.6 0 17.4 0 18-9.3 18-9.3 0 0 3 1.8 7.6 2.1 2.2 0.2 4.7 0.2 6.9 0 3.4-0.2 6.1-1.1 6.1-1.1 0 0-0.3 24.5-49.9 24.5-49.6 0-1263.8 0.2-1306.3 0.2-42.5 0-42.9-31.6-42.9-31.6"/>
	<path id="USB Vectirizado" fill-rule="evenodd" class="s0" d="m1413.2 128.4c12.5 7 36.1 17 48.1 20.7 6 1.9 11 1.5 14.2-0.9 3.8-2.7 5-6.2 5-6.2l-15.4 75.5c0 0-0.6 6.2-4.8 10.1-2.9 2.7-8.2 3.9-12.8 2.8-8.9-2.1-28.5-11.2-38.6-16.8-15.9-8.6-21.1-14.1-21.1-14.1 0 0-0.6-0.6-0.8-1.3-0.3-0.7-0.2-1.6-0.2-1.6 0 0-0.3 1.1 2.2-14.3 3.8-23.3 10.4-65.2 10.4-65.2 0 0-0.3 3.5 13.8 11.3zm10.5 94.8c8.5 3.9 17.1 7.3 17.1 7.3l-1.7 9c0 0-0.3 3.2-3.3 5.5-2.3 1.8-6.9 2.7-10.4 3.1-3.4 0.4-8.3-0.1-11.6-1.4-5.1-2.1-8-5.4-8-5.4 0 0-2.1-1.6-3.3-3.9-1.2-2.6-0.8-4.6-0.8-4.6l3.7-18.8c0 0 9.2 5 18.3 9.2zm-20.7-109.3c0 0-0.2 0.9 0.2 1.6 0.5 0.8 1.7 1.2 1.7 1.2l54.1 26.6c0 0 2 1.1 3.6 1.4 1.1 0.2 1.8-0.4 1.8-0.4 0 0 9.7-6.6 11.9-8.2 2.3-1.6 1.9-1.9 1.9-1.9 0 0 0.8 0.5 1.5 1.8 0.5 1.1 0.4 2.6 0.4 2.6 0 0-2.7 12.9-17.7 8.7-19.3-5.4-49.1-21-49.1-21 0 0-10.6-5.5-12.7-10.4-2-4.8 4.1-9 4.1-9zm74.2 17.9c0 0-0.2 1.3-0.5 2.1-0.1 0.4-0.5 0.6-0.5 0.6l-8.8 6c0 0-2.9 2-3.8 2.1-1.2 0-2.8-0.7-2.8-0.7l-55.4-27.2c0 0-0.5-0.3-0.6-0.6-0.2-0.4 0-0.9 0-0.9l12.7-61.3c0 0 0.2 0.6 0.6 1 0.3 0.5 0.9 0.7 0.9 0.7l55.9 27.5c0 0 1 0.6 2 0.7 1.1 0 2.2-0.4 2.2-0.4l11.8-5.6zm-56.6-36l11.8 5.4 2.7-9.8-11.8-5.4zm21.6 10.7l11.9 5.6 2.7-9.9-11.8-5.6zm41-29.1c0 0-4.6 2.3-5.6 2.4-1 0.1-2.3-0.6-2.3-0.6l-49.2-24 1.3-5.9zm-58.6-23.1l-4.4-2.2c0 0-1.1-0.6-1.1-1.2 0-0.5 1.2-0.8 1.2-0.8l5.9-2.8zm2-7.2l3.2-1.4c0 0 1.2-0.5 2.3-0.4 1.2 0.1 2.3 0.8 2.3 0.8l53.4 27.2c0 0 0.7 0.5 0.8 0.9 0.1 0.4-0.5 0.8-0.5 0.8l-3.5 1.7zm-8.1 2c0.6-0.4 7.8-3.8 11.4-5.4 2.3-1 3.9-0.3 3.9-0.3l56.7 28.3c0 0 0.9 0.6 1 1 0.1 0.5-0.2 1.1-0.2 1.1 0 0 0-0.4-0.2-0.7-0.2-0.3-0.6-0.5-0.6-0.5l-55.1-27.6c0 0-1.7-0.9-2.8-1.2-1-0.2-2.7 0.4-2.7 0.4 0 0-6.4 2.8-10.1 4.6-1.3 0.6-1.9 1.1-1.9 1.1 0 0 0-0.3 0.6-0.8z"/>
	<path id="SERVICIO TECNICO DE CELULARES" class="s0" aria-label="SERVICIO TECNICO DE CELULARES"  d="m119.6 301.8h5.2 19.8v12.5h-25-0.3q-1.3 0-2.3 1-0.9 0.9-0.9 2.2 0 1.3 0.9 2.2 1 0.9 2.3 0.9h9.2 0.4q3.2 0 6 1.2 2.9 1.3 5 3.4 2.2 2.2 3.4 5.1 1.3 2.8 1.3 6 0 3.2-1.3 6.1-1.2 2.8-3.4 5-2.1 2.2-5 3.4-2.8 1.2-6 1.2h-0.4-0.9-24v-12.5h23.5 1.4 0.4q1.3 0 2.2-1 0.9-0.9 0.9-2.2 0-1.3-0.9-2.2-0.9-0.9-2.2-0.9h-0.4-3.7-5.5q-3.3 0-6.1-1.2-2.8-1.2-5-3.4-2.2-2.2-3.4-5-1.2-2.8-1.2-6.1 0-3.2 1.2-6 1.2-2.9 3.4-5.1 2.2-2.1 5-3.4 2.8-1.2 6.1-1.2zm35.3 18.9v-6.3-12.5h39.1v12.5h-26.5v6.3h20.7v12.5h-20.7v6.3h26.5v12.5h-39.1v-12.5-6.3zm88.1-15.1q2.5 1.9 3.9 4.2 1.4 2.2 2.2 5.2 0.4 2 0.4 4.1 0 4.7-2.4 8.8-2.5 4.1-6.8 6.3l9.2 17.8h-14.1l-8.3-15.9h-6.9v15.9h-12.6v-16.7-2.1-12.5-18.8h3.6 9 0.8 1.9 9.5q-0.6 0-0.4 0 0.2 0 0.8 0.1 0.6 0 1.3 0.1 0.8 0 1.1 0 0.8 0.2 1.5 0.4 0.6 0.1 1.3 0.4 2.8 0.9 5 2.7zm-7.4 16.8q1.1-1 1.3-2.3 0.3-1.3-0.1-2.4-0.4-1.2-1.4-2.1-0.9-0.9-2.3-1.1-1.3-0.2-2.6-0.1-1.2 0-2.5 0h-5.1-1.9-0.8v9.2h5.5 5.1q1.3 0 2.5-0.1 1.2-0.1 2.3-1.1zm57.7-20.5h9.2 4.6l-22.6 50.1h-10.7l-22.5-50.1h13.7l14.1 31.5zm30.5-0.1v50.2h-12.6v-50.2zm43.8 17.1q-1.8-2.3-4.1-3.4-2.4-1.2-4.9-1.2-2.5-0.2-4.9 0.7-2.3 0.8-4.2 2.5-1.8 1.6-3 4-1.1 2.3-1.1 5.3 0 2.9 1.1 5.3 1.2 2.4 3 4.1 1.9 1.6 4.2 2.5 2.4 0.8 4.9 0.7 2.5-0.2 4.8-1.3 2.4-1.2 4.2-3.5l0.2-0.1 9.9 7.6q-2.6 3.3-5.9 5.5-3.3 2.2-7 3.2-3.6 1.1-7.6 1-3.9 0-7.6-1.3-3.8-1.3-6.9-3.7-3.1-2.4-5.3-5.5-2.2-3.1-3.4-6.8-1.2-3.7-1.2-7.7 0-4 1.2-7.6 1.2-3.8 3.4-6.9 2.2-3.1 5.3-5.5 3.1-2.3 6.9-3.6 3.7-1.3 7.6-1.4 4-0.1 7.6 0.9 3.6 1.1 6.9 3.2 3.2 2.2 5.7 5.3l0.3 0.3-9.9 7.7zm29.6-17.2v50.2h-12.6v-50.2zm33.9 0.1q5.2 0 9.7 2 4.6 2 8 5.3 3.4 3.4 5.3 8 2 4.6 2 9.8 0 5.1-2 9.7-1.9 4.6-5.3 8-3.4 3.3-8 5.4-4.5 1.9-9.7 1.9-5.2 0-9.8-1.9-4.5-2.1-7.9-5.4-3.4-3.4-5.4-8-2-4.6-2-9.7 0-5.2 2-9.8 2-4.6 5.4-8 3.4-3.3 7.9-5.3 4.6-2 9.8-2zm0 37.6q2.6 0 4.8-1 2.3-1 4-2.7 1.8-1.7 2.7-4 1-2.3 1-4.8 0-2.6-1-4.9-0.9-2.3-2.7-4-1.7-1.7-4-2.7-2.2-1-4.8-1-2.6 0-4.9 1-2.2 1-4 2.7-1.7 1.7-2.7 4-0.9 2.3-0.9 4.9 0 2.5 0.9 4.8 1 2.3 2.7 4 1.8 1.7 4 2.7 2.3 1 4.9 1zm62.6-37.6h12.5 13.6v12.5h-13.6v37.6h-12.5v-37.6h-13.7v-12.5zm34.7 18.8v-6.3-12.5h39.1v12.5h-26.6v6.3h20.7v12.5h-20.7v6.3h26.6v12.5h-39.1v-12.5-6.3zm81.9-1.7q-1.8-2.3-4.2-3.5-2.3-1.1-4.9-1.2-2.4-0.1-4.8 0.7-2.4 0.9-4.2 2.5-1.8 1.6-3 4-1.1 2.4-1.1 5.3 0 3 1.1 5.4 1.2 2.3 3 4 1.8 1.7 4.2 2.5 2.4 0.8 4.8 0.7 2.6-0.1 4.9-1.3 2.3-1.1 4.2-3.4l0.2-0.2 9.9 7.7q-2.6 3.2-5.9 5.4-3.3 2.2-7 3.3-3.7 1.1-7.6 1-3.9-0.1-7.7-1.4-3.7-1.3-6.8-3.6-3.1-2.4-5.3-5.5-2.2-3.2-3.4-6.9-1.2-3.6-1.2-7.7 0-3.9 1.2-7.6 1.2-3.7 3.4-6.8 2.2-3.1 5.3-5.5 3.1-2.4 6.8-3.7 3.8-1.3 7.7-1.3 3.9-0.2 7.5 0.9 3.7 1 6.9 3.2 3.3 2.1 5.8 5.2l0.3 0.3-9.9 7.7zm52.7 13.7l-0.1-30.9h12.5v43.6 6.6h-12.5l-23.2-30.2v1.1 29.2h-7.5-5v-50.2h12.5zm37.5-30.8v50.1h-12.6v-50.1zm43.9 17.1q-1.8-2.3-4.2-3.5-2.4-1.1-4.9-1.2-2.5-0.1-4.8 0.7-2.4 0.9-4.3 2.5-1.8 1.6-2.9 4-1.2 2.4-1.2 5.3 0 3 1.2 5.4 1.1 2.3 2.9 4 1.9 1.7 4.3 2.5 2.3 0.8 4.8 0.7 2.5-0.1 4.8-1.3 2.4-1.1 4.3-3.4l0.1-0.2 9.9 7.7q-2.5 3.2-5.9 5.4-3.3 2.2-6.9 3.3-3.7 1.1-7.7 1-3.9-0.1-7.6-1.4-3.8-1.3-6.8-3.6-3.1-2.4-5.4-5.5-2.1-3.2-3.4-6.9-1.2-3.6-1.2-7.7 0-3.9 1.2-7.6 1.3-3.7 3.4-6.8 2.3-3.1 5.4-5.5 3-2.4 6.8-3.7 3.7-1.3 7.6-1.3 4-0.2 7.6 0.9 3.7 1 6.9 3.2 3.2 2.1 5.8 5.2l0.2 0.3-9.9 7.7zm37.6-17.1q5.2 0 9.7 2.1 4.6 1.9 8 5.3 3.4 3.4 5.3 8 2 4.5 2 9.7 0 5.2-2 9.8-1.9 4.5-5.3 7.9-3.4 3.4-8 5.4-4.5 2-9.7 2-5.2 0-9.8-2-4.5-2-7.9-5.4-3.4-3.4-5.4-7.9-2-4.6-2-9.8 0-5.2 2-9.7 2-4.6 5.4-8 3.4-3.4 7.9-5.3 4.6-2.1 9.8-2.1zm0 37.6q2.6 0 4.8-0.9 2.3-1 4-2.7 1.8-1.8 2.7-4 1-2.3 1-4.9 0-2.6-1-4.8-0.9-2.3-2.7-4.1-1.7-1.7-4-2.6-2.2-1-4.8-1-2.6 0-4.9 1-2.2 0.9-4 2.6-1.7 1.8-2.7 4.1-0.9 2.2-0.9 4.8 0 2.6 0.9 4.9 1 2.2 2.7 4 1.8 1.7 4 2.7 2.3 0.9 4.9 0.9zm72.6-37.6h1q5.2 0 9.8 2 4.6 1.9 8 5.4 3.3 3.4 5.3 8 2 4.5 2 9.7 0 5.2-2 9.8-2 4.5-5.3 7.9-3.4 3.4-8 5.4-4.6 2-9.8 2h-1-19.7v-50.2zm0 37.6h1.1q2.6 0 4.8-0.9 2.3-1 4-2.7 1.8-1.8 2.7-4 1-2.3 1-4.9 0-2.6-1-4.8-0.9-2.3-2.7-4.1-1.7-1.7-4-2.6-2.2-1-4.8-1h-1.1-7.1v25zm34.6-18.8v-6.2-12.6h39.1v12.6h-26.6v6.2h20.8v12.6h-20.8v6.2h26.6v12.6h-39.1v-12.6-6.2zm101-1.8q-1.8-2.3-4.2-3.4-2.4-1.2-4.9-1.2-2.5-0.2-4.8 0.7-2.4 0.8-4.3 2.5-1.8 1.6-2.9 4-1.2 2.3-1.2 5.3 0 2.9 1.2 5.3 1.1 2.4 2.9 4 1.9 1.7 4.3 2.6 2.3 0.8 4.8 0.7 2.5-0.2 4.8-1.3 2.4-1.2 4.3-3.5l0.1-0.1 9.9 7.6q-2.6 3.3-5.9 5.5-3.3 2.1-6.9 3.2-3.7 1.1-7.7 1-3.9 0-7.6-1.3-3.8-1.3-6.9-3.7-3-2.4-5.3-5.5-2.1-3.1-3.4-6.8-1.2-3.7-1.2-7.7 0-4 1.2-7.7 1.3-3.7 3.4-6.8 2.3-3.1 5.3-5.5 3.1-2.3 6.9-3.6 3.7-1.3 7.6-1.4 4-0.1 7.6 0.9 3.7 1 6.9 3.2 3.2 2.2 5.8 5.3l0.2 0.2-9.9 7.7zm17 1.8v-6.3-12.5h39.1v12.5h-26.6v6.3h20.8v12.5h-20.8v6.3h26.6v12.5h-39.1v-12.5-6.3zm65.2-18.8v37.6h21.1v12.5h-33.6v-50.1zm60.7 0h3 9.5v24.8q0 5.2-2 9.8-1.9 4.7-5.4 8.1-3.4 3.5-8.1 5.5-4.6 1.9-9.8 1.9-5.3 0-9.9-1.9-4.6-2-8-5.5-3.5-3.4-5.5-8.1-2-4.6-2-9.8v-24.8h9.5 3.1v24.8q0 2.6 1 5 1 2.3 2.7 4.1 1.7 1.7 4 2.7 2.4 1 5.1 1 2.6 0 4.9-1 2.4-1 4.2-2.7 1.7-1.8 2.7-4.1 1-2.4 1-5zm36.5 0v37.6h21v12.5h-33.5v-50.1zm25.1 50.1l22.5-50.1h10.8l22.5 50.1h-13.8l-2.9-6.5h-22.4l-2.9 6.5zm27.9-31.5l-6.3 13.9h12.6zm67.3-15q2.5 1.8 3.9 4.2 1.4 2.2 2.2 5.2 0.4 2 0.4 4 0 4.8-2.4 8.9-2.5 4.1-6.9 6.3l9.3 17.8h-14.1l-8.3-15.9h-7v15.9h-12.5v-16.7-2.1-12.5-18.8h3.6 8.9 0.8 2 9.5q-0.7 0-0.4 0 0.2 0 0.7 0.1 0.7 0 1.4 0 0.7 0 1.1 0.1 0.8 0.2 1.4 0.4 0.7 0.1 1.4 0.3 2.8 1 5 2.8zm-7.4 16.8q1-1.1 1.3-2.3 0.2-1.3-0.1-2.4-0.4-1.3-1.4-2.1-0.9-0.9-2.3-1.1-1.3-0.2-2.6-0.1-1.2 0-2.5 0h-5.1-2-0.8v9.2h5.6 5.1q1.3 0 2.5-0.1 1.2-0.1 2.3-1.1zm23.1-1.7v-6.3-12.5h39.1v12.5h-26.6v6.3h20.7v12.5h-20.7v6.3h26.6v12.5h-39.1v-12.5-6.3zm64.1-18.8h5.2 19.7v12.5h-24.9-0.3q-1.3 0-2.3 0.9-0.9 1-0.9 2.3 0 1.3 0.9 2.2 1 0.9 2.3 0.9h9.2 0.3q3.3 0 6.1 1.2 2.9 1.2 5 3.4 2.2 2.1 3.4 5 1.2 2.8 1.2 6 0 3.3-1.2 6.2-1.2 2.8-3.4 4.9-2.1 2.2-5 3.4-2.8 1.2-6.1 1.2h-0.3-0.9-24v-12.5h23.4 1.5 0.3q1.3 0 2.3-0.9 0.9-1 0.9-2.3 0-1.2-0.9-2.1-1-0.9-2.3-0.9h-0.3-3.7-5.5q-3.3 0-6.2-1.3-2.8-1.2-4.9-3.4-2.2-2.1-3.4-4.9-1.2-2.9-1.2-6.1 0-3.3 1.2-6.1 1.2-2.9 3.4-5 2.1-2.2 4.9-3.4 2.9-1.2 6.2-1.2z"/>
</svg>