<svg version="1.2" xmlns="http://www.w3.org/2000/svg" viewBox="0 0 732 732" width="732" height="732">
	<title>usbIcon</title>
	<style>
		.s0 { fill: #000000 } 
		.s1 { fill: #ffffff } 
	</style>
	<path id="Relleno de color 1" class="s0" d="m366 9.1c197.1 0 356.9 159.8 356.9 356.9 0 197-159.8 356.8-356.9 356.8-197.1 0-356.9-159.8-356.9-356.8 0-197.1 159.8-356.9 356.9-356.9z"/>
	<path id="Relleno de color 3" class="s1" d="m365.9 552.2c24.7 0 44.7 20 44.7 44.7 0 24.6-20 44.6-44.7 44.6-24.6 0-44.6-20-44.6-44.6 0-24.7 20-44.7 44.6-44.7zm-98.7-284.6c22.5 0 40.6 18.2 40.6 40.6 0 22.4-18.1 40.5-40.6 40.5-22.4 0-40.5-18.1-40.5-40.5 0-22.4 18.1-40.6 40.5-40.6zm84.2-121.1h28.8v414.3h-28.8zm96 79.8h28.8v95.4h-28.8zm-194.1 80.5h28.7v93.7h-28.7zm0 93.6l20.3-20.4 100.7 100.7-20.4 20.3zm202.6-99.1l20.4 20.4-97.6 97.6-20.4-20.4zm-26.8-103.8h65.7v65.8h-65.7zm-63.4-107l42.3 73.1h-84.5z"/>
</svg>